<svg fill="none" height="100%" width="100%" viewBox="0 0 500 500" xmlns:xlink="http://www.w3.org/1999/xlink" xmlns="http://www.w3.org/2000/svg"><g id="i0"><g transform="translate(250,250)"><g transform="rotate(0)"><animateTransform repeatCount="indefinite" type="rotate" attributeName="transform" dur="5s" begin="0s" calcMode="spline" values="0; -26; 0; 0" keyTimes="0; 0.413333; 0.993333; 1" keySplines="0 0 1 1; 0 0 1 1; 0 0 1 1" fill="freeze" /><g transform="scale(6.8,6.8) translate(-28,-28)"><g id="i1"><path fill="#c10007" d="M36.239,7.395C33.076,7.395,29.914,8.603,27.494,11.002C22.673,15.817,22.673,23.653,27.494,28.468C32.316,33.283,40.162,33.283,44.983,28.468C49.805,23.653,49.805,15.817,44.983,11.002C42.581,8.603,39.401,7.395,36.239,7.395C36.239,7.395,36.239,7.395,36.239,7.395ZM36.239,39.479C31.175,39.479,26.112,37.546,22.258,33.697C14.551,26,14.551,13.47,22.258,5.773C29.966,-1.924,42.512,-1.924,50.219,5.773C57.927,13.47,57.927,26,50.219,33.697C46.366,37.546,41.302,39.479,36.239,39.479C36.239,39.479,36.239,39.479,36.239,39.479Z" /></g><g id="i2"><path fill="#c10007" d="M3.715,55.926C2.765,55.926,1.815,55.564,1.089,54.839C-0.363,53.389,-0.363,51.06,1.089,49.61C1.089,49.61,22.258,28.468,22.258,28.468C23.71,27.018,26.06,27.018,27.495,28.468C28.946,29.918,28.946,32.248,27.495,33.698C27.495,33.698,6.325,54.839,6.325,54.839C5.599,55.564,4.649,55.926,3.698,55.926C3.698,55.926,3.715,55.926,3.715,55.926C3.715,55.926,3.715,55.926,3.715,55.926Z" /></g></g></g></g></g></svg>